<mxfile host="app.diagrams.net" agent="Mozilla/5.0 (X11; Linux x86_64; rv:128.0) Gecko/20100101 Firefox/128.0" version="27.1.4">
  <diagram name="Page-1" id="kJ_aqJAe6GabzgCEcYPk">
    <mxGraphModel dx="1426" dy="772" grid="1" gridSize="10" guides="1" tooltips="1" connect="1" arrows="1" fold="1" page="1" pageScale="1" pageWidth="1169" pageHeight="827" math="0" shadow="0">
      <root>
        <mxCell id="0" />
        <mxCell id="1" parent="0" />
        <mxCell id="geI-lGLNKgZ5x7HDuSev-63" value="" style="rounded=0;whiteSpace=wrap;html=1;strokeColor=#CCCCCC;fillColor=none;" parent="1" vertex="1">
          <mxGeometry x="200" y="140" width="760" height="540" as="geometry" />
        </mxCell>
        <mxCell id="geI-lGLNKgZ5x7HDuSev-54" value="" style="rounded=0;whiteSpace=wrap;html=1;strokeColor=#CCCCCC;fillColor=none;" parent="1" vertex="1">
          <mxGeometry x="200" y="40" width="760" height="640" as="geometry" />
        </mxCell>
        <mxCell id="geI-lGLNKgZ5x7HDuSev-1" value="&lt;font style=&quot;font-size: 14px;&quot;&gt;mt310s2d&lt;br&gt;com5003d&lt;/font&gt;" style="rounded=0;whiteSpace=wrap;html=1;" parent="1" vertex="1">
          <mxGeometry x="320" y="480" width="170" height="100" as="geometry" />
        </mxCell>
        <mxCell id="geI-lGLNKgZ5x7HDuSev-2" value="&lt;font style=&quot;font-size: 12px;&quot;&gt;S&lt;br&gt;O&lt;br&gt;U&lt;br&gt;R&lt;br&gt;C&lt;br&gt;E&lt;br&gt;S&lt;/font&gt;" style="rounded=0;whiteSpace=wrap;html=1;" parent="1" vertex="1">
          <mxGeometry x="481.68" y="480" width="30" height="100" as="geometry" />
        </mxCell>
        <mxCell id="geI-lGLNKgZ5x7HDuSev-3" value="&lt;font style=&quot;font-size: 14px;&quot;&gt;zdsp1d&lt;/font&gt;" style="rounded=0;whiteSpace=wrap;html=1;" parent="1" vertex="1">
          <mxGeometry x="560" y="480" width="160" height="100" as="geometry" />
        </mxCell>
        <mxCell id="geI-lGLNKgZ5x7HDuSev-4" value="&lt;font style=&quot;font-size: 14px;&quot;&gt;ModeModule&lt;/font&gt;" style="rounded=0;whiteSpace=wrap;html=1;" parent="1" vertex="1">
          <mxGeometry x="320" y="170" width="120" height="60" as="geometry" />
        </mxCell>
        <mxCell id="geI-lGLNKgZ5x7HDuSev-5" value="1" style="ellipse;whiteSpace=wrap;html=1;" parent="1" vertex="1">
          <mxGeometry x="418" y="208" width="20" height="20" as="geometry" />
        </mxCell>
        <mxCell id="geI-lGLNKgZ5x7HDuSev-31" style="edgeStyle=orthogonalEdgeStyle;rounded=0;orthogonalLoop=1;jettySize=auto;html=1;entryX=1;entryY=0.5;entryDx=0;entryDy=0;" parent="1" source="geI-lGLNKgZ5x7HDuSev-6" target="geI-lGLNKgZ5x7HDuSev-11" edge="1">
          <mxGeometry relative="1" as="geometry" />
        </mxCell>
        <mxCell id="geI-lGLNKgZ5x7HDuSev-6" value="&lt;font style=&quot;font-size: 14px;&quot;&gt;Common Range&lt;br&gt;Object&lt;/font&gt;" style="rounded=0;whiteSpace=wrap;html=1;" parent="1" vertex="1">
          <mxGeometry x="430" y="250" width="120" height="60" as="geometry" />
        </mxCell>
        <mxCell id="geI-lGLNKgZ5x7HDuSev-7" value="2" style="ellipse;whiteSpace=wrap;html=1;" parent="1" vertex="1">
          <mxGeometry x="530" y="290" width="18" height="18" as="geometry" />
        </mxCell>
        <mxCell id="geI-lGLNKgZ5x7HDuSev-8" value="&lt;font style=&quot;font-size: 14px;&quot;&gt;Range Module&lt;/font&gt;" style="rounded=0;whiteSpace=wrap;html=1;" parent="1" vertex="1">
          <mxGeometry x="560" y="250" width="150" height="30" as="geometry" />
        </mxCell>
        <mxCell id="geI-lGLNKgZ5x7HDuSev-9" value="&lt;div style=&quot;font-size: 14px;&quot;&gt;&lt;ul&gt;&lt;li&gt;&lt;div&gt;&lt;font style=&quot;font-size: 14px;&quot;&gt;adjustment&lt;/font&gt;&lt;/div&gt;&lt;/li&gt;&lt;li&gt;&lt;div&gt;&lt;font style=&quot;font-size: 14px;&quot;&gt;overload&lt;/font&gt;&lt;/div&gt;&lt;/li&gt;&lt;li&gt;&lt;div&gt;&lt;font style=&quot;font-size: 14px;&quot;&gt;autoRange&lt;/font&gt;&lt;/div&gt;&lt;/li&gt;&lt;li&gt;&lt;div&gt;&lt;font style=&quot;font-size: 14px;&quot;&gt;Grouping&lt;/font&gt;&lt;/div&gt;&lt;/li&gt;&lt;/ul&gt;&lt;/div&gt;" style="rounded=0;whiteSpace=wrap;html=1;align=left;labelPosition=center;verticalLabelPosition=middle;verticalAlign=middle;" parent="1" vertex="1">
          <mxGeometry x="560" y="278" width="150" height="72" as="geometry" />
        </mxCell>
        <mxCell id="geI-lGLNKgZ5x7HDuSev-10" value="3" style="ellipse;whiteSpace=wrap;html=1;" parent="1" vertex="1">
          <mxGeometry x="690" y="328" width="18" height="20" as="geometry" />
        </mxCell>
        <mxCell id="geI-lGLNKgZ5x7HDuSev-11" value="&lt;font style=&quot;font-size: 14px;&quot;&gt;Other Modules&lt;/font&gt;" style="rounded=0;whiteSpace=wrap;html=1;" parent="1" vertex="1">
          <mxGeometry x="220" y="250" width="120" height="60" as="geometry" />
        </mxCell>
        <mxCell id="geI-lGLNKgZ5x7HDuSev-12" value="4" style="ellipse;whiteSpace=wrap;html=1;" parent="1" vertex="1">
          <mxGeometry x="317" y="287" width="20" height="20" as="geometry" />
        </mxCell>
        <mxCell id="geI-lGLNKgZ5x7HDuSev-13" value="&lt;div style=&quot;font-size: 14px;&quot; align=&quot;left&quot;&gt;&lt;ul&gt;&lt;li&gt;&lt;font style=&quot;font-size: 14px;&quot;&gt;Range Info hotplug&lt;br&gt;&lt;/font&gt;&lt;/li&gt;&lt;li&gt;&lt;font style=&quot;font-size: 14px;&quot;&gt;Range Select&lt;/font&gt;&lt;/li&gt;&lt;li&gt;&lt;font style=&quot;font-size: 14px;&quot;&gt;Overload hard&lt;/font&gt;&lt;/li&gt;&lt;/ul&gt;&lt;/div&gt;" style="text;html=1;align=left;verticalAlign=middle;whiteSpace=wrap;rounded=0;" parent="1" vertex="1">
          <mxGeometry x="290" y="585" width="190" height="50" as="geometry" />
        </mxCell>
        <mxCell id="geI-lGLNKgZ5x7HDuSev-14" value="&lt;div style=&quot;font-size: 14px;&quot; align=&quot;left&quot;&gt;&lt;ul&gt;&lt;li&gt;&lt;font style=&quot;font-size: 14px;&quot;&gt;Raw &amp;nbsp; &amp;nbsp; &amp;nbsp;&amp;nbsp;&amp;nbsp;&amp;nbsp;&amp;nbsp;&amp;nbsp;&amp;nbsp;&amp;nbsp;&amp;nbsp;&amp;nbsp;&amp;nbsp;&amp;nbsp; Adj&lt;br&gt;&lt;/font&gt;&lt;/li&gt;&lt;li&gt;&lt;font style=&quot;font-size: 14px;&quot;&gt;Raw&amp;nbsp;&amp;nbsp;&amp;nbsp;&amp;nbsp;&amp;nbsp;&amp;nbsp;&amp;nbsp;&amp;nbsp;&amp;nbsp;&amp;nbsp;&amp;nbsp;&amp;nbsp;&amp;nbsp;&amp;nbsp;&amp;nbsp;&amp;nbsp;&amp;nbsp; Overload&lt;/font&gt;&lt;/li&gt;&lt;/ul&gt;&lt;/div&gt;" style="text;html=1;align=left;verticalAlign=middle;whiteSpace=wrap;rounded=0;" parent="1" vertex="1">
          <mxGeometry x="530" y="575" width="220" height="50" as="geometry" />
        </mxCell>
        <mxCell id="geI-lGLNKgZ5x7HDuSev-16" value="" style="endArrow=classic;html=1;rounded=0;exitX=0.5;exitY=1;exitDx=0;exitDy=0;" parent="1" source="geI-lGLNKgZ5x7HDuSev-4" edge="1">
          <mxGeometry width="50" height="50" relative="1" as="geometry">
            <mxPoint x="380" y="240" as="sourcePoint" />
            <mxPoint x="380" y="480" as="targetPoint" />
          </mxGeometry>
        </mxCell>
        <mxCell id="geI-lGLNKgZ5x7HDuSev-17" value="&lt;font style=&quot;font-size: 14px;&quot;&gt;channel Types (REF)&lt;/font&gt;" style="text;html=1;align=center;verticalAlign=middle;whiteSpace=wrap;rounded=0;rotation=-90;" parent="1" vertex="1">
          <mxGeometry x="302" y="360" width="140" height="30" as="geometry" />
        </mxCell>
        <mxCell id="geI-lGLNKgZ5x7HDuSev-18" value="" style="endArrow=classic;html=1;rounded=0;dashed=1;dashPattern=8 8;exitX=0.097;exitY=-0.019;exitDx=0;exitDy=0;exitPerimeter=0;entryX=0.457;entryY=1.043;entryDx=0;entryDy=0;entryPerimeter=0;" parent="1" source="geI-lGLNKgZ5x7HDuSev-1" target="geI-lGLNKgZ5x7HDuSev-11" edge="1">
          <mxGeometry width="50" height="50" relative="1" as="geometry">
            <mxPoint x="330" y="470" as="sourcePoint" />
            <mxPoint x="260" y="320" as="targetPoint" />
          </mxGeometry>
        </mxCell>
        <mxCell id="geI-lGLNKgZ5x7HDuSev-19" value="&lt;font style=&quot;font-size: 14px;&quot;&gt;Range Info (hotplug)&lt;/font&gt;" style="text;html=1;align=center;verticalAlign=middle;whiteSpace=wrap;rounded=0;rotation=313;" parent="1" vertex="1">
          <mxGeometry x="428.99" y="384.48" width="160" height="30" as="geometry" />
        </mxCell>
        <mxCell id="geI-lGLNKgZ5x7HDuSev-20" value="" style="endArrow=classic;html=1;rounded=0;exitX=0.878;exitY=-0.002;exitDx=0;exitDy=0;entryX=0.25;entryY=1;entryDx=0;entryDy=0;exitPerimeter=0;" parent="1" source="geI-lGLNKgZ5x7HDuSev-1" target="geI-lGLNKgZ5x7HDuSev-9" edge="1">
          <mxGeometry width="50" height="50" relative="1" as="geometry">
            <mxPoint x="440" y="460" as="sourcePoint" />
            <mxPoint x="462" y="310" as="targetPoint" />
          </mxGeometry>
        </mxCell>
        <mxCell id="geI-lGLNKgZ5x7HDuSev-22" value="&lt;font style=&quot;font-size: 14px;&quot;&gt;Source Module&lt;/font&gt;" style="rounded=0;whiteSpace=wrap;html=1;" parent="1" vertex="1">
          <mxGeometry x="720" y="250" width="120" height="60" as="geometry" />
        </mxCell>
        <mxCell id="geI-lGLNKgZ5x7HDuSev-24" value="&lt;font style=&quot;font-size: 14px;&quot;&gt;RS 232&lt;/font&gt;" style="text;html=1;align=center;verticalAlign=middle;whiteSpace=wrap;rounded=0;" parent="1" vertex="1">
          <mxGeometry x="810" y="323" width="60" height="30" as="geometry" />
        </mxCell>
        <mxCell id="geI-lGLNKgZ5x7HDuSev-25" value="" style="endArrow=classic;html=1;rounded=0;exitX=0.543;exitY=0.994;exitDx=0;exitDy=0;exitPerimeter=0;" parent="1" source="geI-lGLNKgZ5x7HDuSev-22" target="geI-lGLNKgZ5x7HDuSev-24" edge="1">
          <mxGeometry width="50" height="50" relative="1" as="geometry">
            <mxPoint x="910" y="510" as="sourcePoint" />
            <mxPoint x="960" y="460" as="targetPoint" />
            <Array as="points">
              <mxPoint x="785" y="340" />
            </Array>
          </mxGeometry>
        </mxCell>
        <mxCell id="geI-lGLNKgZ5x7HDuSev-26" value="&lt;font style=&quot;font-size: 14px;&quot;&gt;Adjustment:&lt;br&gt;&lt;/font&gt;&lt;ul style=&quot;font-size: 14px;&quot;&gt;&lt;li&gt;&lt;div align=&quot;left&quot;&gt;&lt;font style=&quot;font-size: 14px;&quot;&gt;Scale&lt;/font&gt;&lt;/div&gt;&lt;/li&gt;&lt;li&gt;&lt;div align=&quot;left&quot;&gt;&lt;font style=&quot;font-size: 14px;&quot;&gt;Adj Node&lt;/font&gt;&lt;/div&gt;&lt;/li&gt;&lt;ul&gt;&lt;li&gt;&lt;font style=&quot;font-size: 14px;&quot;&gt;Invert&lt;/font&gt;&lt;/li&gt;&lt;li&gt;&lt;div align=&quot;left&quot;&gt;&lt;font style=&quot;font-size: 14px;&quot;&gt;&lt;font style=&quot;font-size: 14px;&quot;&gt;Fake&lt;/font&gt;&lt;br&gt;&lt;/font&gt;&lt;/div&gt;&lt;/li&gt;&lt;/ul&gt;&lt;/ul&gt;" style="text;html=1;align=center;verticalAlign=middle;whiteSpace=wrap;rounded=0;" parent="1" vertex="1">
          <mxGeometry x="730" y="440" width="130" height="100" as="geometry" />
        </mxCell>
        <mxCell id="geI-lGLNKgZ5x7HDuSev-29" value="++" style="ellipse;whiteSpace=wrap;html=1;fillColor=#dae8fc;strokeColor=#7EA6E0;" parent="1" vertex="1">
          <mxGeometry x="676" y="284" width="18" height="10" as="geometry" />
        </mxCell>
        <mxCell id="geI-lGLNKgZ5x7HDuSev-30" value="" style="endArrow=none;html=1;rounded=0;endFill=0;startArrow=classic;startFill=1;" parent="1" edge="1">
          <mxGeometry width="50" height="50" relative="1" as="geometry">
            <mxPoint x="480" y="311" as="sourcePoint" />
            <mxPoint x="430" y="480" as="targetPoint" />
          </mxGeometry>
        </mxCell>
        <mxCell id="geI-lGLNKgZ5x7HDuSev-33" value="&lt;font style=&quot;font-size: 14px;&quot;&gt;Range Select&lt;/font&gt;" style="text;html=1;align=center;verticalAlign=middle;whiteSpace=wrap;rounded=0;rotation=313;" parent="1" vertex="1">
          <mxGeometry x="494.16" y="403" width="93.68" height="30.68" as="geometry" />
        </mxCell>
        <mxCell id="geI-lGLNKgZ5x7HDuSev-35" value="" style="endArrow=classic;html=1;rounded=0;exitX=0.083;exitY=1;exitDx=0;exitDy=0;exitPerimeter=0;entryX=0.75;entryY=0;entryDx=0;entryDy=0;" parent="1" source="geI-lGLNKgZ5x7HDuSev-9" target="geI-lGLNKgZ5x7HDuSev-1" edge="1">
          <mxGeometry width="50" height="50" relative="1" as="geometry">
            <mxPoint x="490" y="321" as="sourcePoint" />
            <mxPoint x="440" y="490" as="targetPoint" />
          </mxGeometry>
        </mxCell>
        <mxCell id="geI-lGLNKgZ5x7HDuSev-37" value="&lt;font style=&quot;font-size: 14px;&quot;&gt;Range Info&lt;/font&gt;" style="text;html=1;align=center;verticalAlign=middle;whiteSpace=wrap;rounded=0;rotation=287;" parent="1" vertex="1">
          <mxGeometry x="408.16" y="377.19" width="80" height="30" as="geometry" />
        </mxCell>
        <mxCell id="geI-lGLNKgZ5x7HDuSev-38" value="" style="endArrow=classic;html=1;rounded=0;exitX=0.5;exitY=0;exitDx=0;exitDy=0;" parent="1" edge="1">
          <mxGeometry width="50" height="50" relative="1" as="geometry">
            <mxPoint x="605" y="480" as="sourcePoint" />
            <mxPoint x="605" y="350" as="targetPoint" />
          </mxGeometry>
        </mxCell>
        <mxCell id="geI-lGLNKgZ5x7HDuSev-39" value="" style="endArrow=none;html=1;rounded=0;exitX=0.5;exitY=0;exitDx=0;exitDy=0;endFill=0;startArrow=classic;startFill=1;" parent="1" edge="1">
          <mxGeometry width="50" height="50" relative="1" as="geometry">
            <mxPoint x="622" y="480" as="sourcePoint" />
            <mxPoint x="622" y="350" as="targetPoint" />
          </mxGeometry>
        </mxCell>
        <mxCell id="geI-lGLNKgZ5x7HDuSev-40" value="&lt;font style=&quot;font-size: 14px;&quot;&gt;adjust&lt;/font&gt;" style="text;html=1;align=center;verticalAlign=middle;whiteSpace=wrap;rounded=0;rotation=270;" parent="1" vertex="1">
          <mxGeometry x="587.3199999999999" y="399" width="53.68" height="30.68" as="geometry" />
        </mxCell>
        <mxCell id="geI-lGLNKgZ5x7HDuSev-42" value="" style="curved=1;endArrow=classic;html=1;rounded=0;exitX=0.167;exitY=1;exitDx=0;exitDy=0;exitPerimeter=0;entryX=0.5;entryY=0;entryDx=0;entryDy=0;" parent="1" source="geI-lGLNKgZ5x7HDuSev-22" target="geI-lGLNKgZ5x7HDuSev-2" edge="1">
          <mxGeometry width="50" height="50" relative="1" as="geometry">
            <mxPoint x="610" y="460" as="sourcePoint" />
            <mxPoint x="660" y="410" as="targetPoint" />
            <Array as="points">
              <mxPoint x="740" y="350" />
              <mxPoint x="720" y="390" />
              <mxPoint x="650" y="450" />
              <mxPoint x="590" y="460" />
              <mxPoint x="550" y="450" />
              <mxPoint x="510" y="460" />
            </Array>
          </mxGeometry>
        </mxCell>
        <mxCell id="geI-lGLNKgZ5x7HDuSev-43" value="?" style="text;html=1;align=center;verticalAlign=middle;whiteSpace=wrap;rounded=0;rotation=-45;" parent="1" vertex="1">
          <mxGeometry x="639" y="416" width="38" height="20" as="geometry" />
        </mxCell>
        <mxCell id="geI-lGLNKgZ5x7HDuSev-46" value="++" style="ellipse;whiteSpace=wrap;html=1;fillColor=#dae8fc;strokeColor=#7EA6E0;" parent="1" vertex="1">
          <mxGeometry x="736" y="434" width="18" height="10" as="geometry" />
        </mxCell>
        <mxCell id="geI-lGLNKgZ5x7HDuSev-49" value="" style="html=1;shadow=0;dashed=0;align=center;verticalAlign=middle;shape=mxgraph.arrows2.arrow;dy=0.67;dx=20;notch=0;" parent="1" vertex="1">
          <mxGeometry x="845" y="480" width="40" height="18" as="geometry" />
        </mxCell>
        <mxCell id="geI-lGLNKgZ5x7HDuSev-51" value="&lt;div style=&quot;font-size: 14px;&quot;&gt;&lt;font style=&quot;font-size: 14px;&quot; color=&quot;#ff0000&quot;&gt;Corr 1&lt;/font&gt;&lt;/div&gt;&lt;div style=&quot;font-size: 14px;&quot;&gt;&lt;font style=&quot;font-size: 14px;&quot; color=&quot;#ff0000&quot;&gt;Corr 2&lt;br&gt;&lt;/font&gt;&lt;/div&gt;" style="text;html=1;align=center;verticalAlign=middle;whiteSpace=wrap;rounded=0;" parent="1" vertex="1">
          <mxGeometry x="885" y="474" width="60" height="30" as="geometry" />
        </mxCell>
        <mxCell id="geI-lGLNKgZ5x7HDuSev-52" value="&lt;h1 style=&quot;margin-top: 0px;&quot;&gt;Rangehandling new Source MT581&lt;/h1&gt;&lt;p&gt;&lt;font style=&quot;font-size: 14px;&quot;&gt;Lorem ipsum dolor sit amet,.....&lt;/font&gt;&lt;/p&gt;" style="text;html=1;whiteSpace=wrap;overflow=hidden;rounded=0;" parent="1" vertex="1">
          <mxGeometry x="210" y="44" width="760" height="120" as="geometry" />
        </mxCell>
        <mxCell id="geI-lGLNKgZ5x7HDuSev-57" value="" style="html=1;shadow=0;dashed=0;align=center;verticalAlign=middle;shape=mxgraph.arrows2.arrow;dy=0.67;dx=20;notch=0;" parent="1" vertex="1">
          <mxGeometry x="608" y="588" width="40" height="10" as="geometry" />
        </mxCell>
        <mxCell id="geI-lGLNKgZ5x7HDuSev-58" value="" style="html=1;shadow=0;dashed=0;align=center;verticalAlign=middle;shape=mxgraph.arrows2.arrow;dy=0.67;dx=20;notch=0;" parent="1" vertex="1">
          <mxGeometry x="608" y="605" width="40" height="10" as="geometry" />
        </mxCell>
        <mxCell id="geI-lGLNKgZ5x7HDuSev-59" value="&lt;font color=&quot;#ff0000&quot;&gt;?&lt;/font&gt;" style="text;html=1;align=center;verticalAlign=middle;whiteSpace=wrap;rounded=0;" parent="1" vertex="1">
          <mxGeometry x="307.5" y="429.68" width="41" height="20" as="geometry" />
        </mxCell>
        <mxCell id="geI-lGLNKgZ5x7HDuSev-60" value="&lt;font color=&quot;#ff0000&quot;&gt;?&lt;/font&gt;" style="text;html=1;align=center;verticalAlign=middle;whiteSpace=wrap;rounded=0;" parent="1" vertex="1">
          <mxGeometry x="507" y="520" width="41" height="20" as="geometry" />
        </mxCell>
        <mxCell id="geI-lGLNKgZ5x7HDuSev-62" value="&lt;font color=&quot;#ff0000&quot;&gt;?&lt;/font&gt;" style="text;html=1;align=center;verticalAlign=middle;whiteSpace=wrap;rounded=0;" parent="1" vertex="1">
          <mxGeometry x="377" y="94" width="41" height="20" as="geometry" />
        </mxCell>
      </root>
    </mxGraphModel>
  </diagram>
</mxfile>
